<?xml version="1.0" standalone="no"?><!DOCTYPE svg PUBLIC "-//W3C//DTD SVG 1.1//EN" "http://www.w3.org/Graphics/SVG/1.1/DTD/svg11.dtd"><svg class="icon" height="512" viewBox="0 0 1024 1024" version="1.1" xmlns="http://www.w3.org/2000/svg"><path d="M299.718288 127.864579 720.155038 127.864579 720.155038 891.801178 299.718288 891.801178 299.718288 127.864579ZM732.074521 115.945104C730.990009 114.860584 728.823524 113.777369 726.655766 113.777369L293.216289 113.777369C291.049804 113.777369 289.966561 114.860584 287.798804 115.945104 286.715562 117.028358 285.631048 119.194827 285.631048 121.362601L285.631048 899.38641C285.631048 901.55288 286.715562 902.637399 287.798804 904.803907 288.882047 905.888388 291.049804 906.971642 293.216289 906.971642L727.739008 906.971642C729.906767 906.971642 730.990009 905.888388 733.157763 904.803907 735.324248 903.720653 735.324248 901.55288 735.324248 899.38641L735.324248 121.362601C734.241006 119.194827 733.157763 117.028358 732.074521 115.945104L732.074521 115.945104ZM544.611236 71.516889C545.695752 70.433673 546.778994 68.2659 546.778994 66.09943 546.778994 63.931657 545.695752 62.848403 544.611236 60.680668 543.527994 59.597414 541.360235 58.51416 539.193751 58.51416L473.094333 58.51416C470.926576 58.51416 469.843334 59.597414 467.675577 60.680668 466.592334 61.765187 465.509091 63.931657 465.509091 66.09943 465.509091 68.2659 466.592334 69.350419 467.675577 71.516889 468.760091 72.600143 470.926576 73.684662 473.094333 73.684662L539.193751 73.684662C541.360235 73.684662 542.444751 72.600143 544.611236 71.516889L544.611236 71.516889ZM527.274268 936.228089 527.274268 936.228089C531.608511 940.562332 532.691753 945.981095 532.691753 952.483111L532.691753 954.649581C532.691753 961.151597 530.525268 966.569056 525.10651 970.903299 520.772271 975.237542 514.270269 978.488531 507.769542 978.488531L506.68503 978.488531C500.184302 978.488531 493.682301 975.237542 489.348058 970.903299 485.013817 966.569056 481.762818 961.151597 481.762818 954.649581L481.762818 952.483111C481.762818 945.981095 483.930575 941.646852 488.264815 937.312609L489.348058 936.228089C490.4313 935.144874 491.515816 934.06162 492.599058 932.9771 494.765543 930.810631 498.016544 929.727377 501.267544 928.642857 502.350787 928.642857 504.518541 927.559603 505.601787 927.559603L507.769542 927.559603C509.936026 927.559603 513.187027 927.559603 515.354785 928.642857 517.52127 929.727377 519.689024 930.810631 521.855513 931.893846L522.940025 932.9771C525.10651 934.06162 526.189752 935.144874 527.274268 936.228089L527.274268 936.228089ZM499.099786 914.556874C493.682301 915.640128 489.348058 917.807902 485.013817 921.057625 483.930575 922.142145 482.84606 923.22536 481.762818 924.308614 480.679575 924.308614 479.595061 925.393134 478.511818 926.476388 472.011091 932.9771 468.760091 941.646852 467.675577 951.398592L467.675577 954.649581C467.675577 964.402586 472.011091 973.071072 479.595061 980.656304 487.180303 988.241536 495.850059 992.575779 506.68503 992.575779L508.852784 992.575779C518.605782 992.575779 528.35751 988.241536 535.942754 980.656304 543.527994 973.071072 546.778994 964.402586 546.778994 953.566327L546.778994 951.398592C546.778994 941.646852 543.527994 932.978366 537.025996 925.393134L535.942754 924.308614 534.859508 923.22536C533.776265 922.142145 531.608511 921.058891 530.525268 919.974371 528.35751 917.807902 526.191025 916.723382 522.940025 915.640128 518.605782 913.473659 514.270269 912.389139 508.852784 912.389139L506.68503 912.389139C504.518541 913.472393 502.350787 913.472393 499.099786 914.556874L499.099786 914.556874ZM694.148315 14.085983 696.314799 14.085983C712.569795 15.170502 725.572524 21.671215 735.324248 33.59069 746.160492 46.594685 752.66249 61.765187 752.66249 81.269894L752.66249 942.730106C752.66249 961.151597 746.160492 977.405315 735.324248 990.408044 725.572524 1002.327519 712.569795 1008.829498 696.314799 1009.912751L330.059255 1009.912751C311.637772 1009.912751 296.467289 1003.412039 284.547805 990.408044 273.711564 977.405315 267.210836 961.151597 267.210836 942.730106L267.210836 81.269894C267.210836 62.848403 273.711564 46.594685 284.547805 33.59069 295.384046 20.587961 310.55453 14.085983 330.059255 14.085983L694.148315 14.085983 694.148315 14.085983ZM699.5658 1.083254C698.482558 1.083254 697.399311 0 696.314799 0L330.059255 0C307.30353 0 287.798804 7.585232 273.711564 24.922204 260.708837 40.092707 253.123596 58.51416 253.123596 81.269894L253.123596 943.81336C253.123596 966.569056 260.708837 984.990547 273.711564 1000.16105 287.798804 1016.414768 306.220287 1024 330.059255 1024L697.399311 1024 698.482558 1024C717.98728 1021.832227 734.241006 1014.246994 747.245004 1000.16105 761.330976 984.990547 767.832973 965.48584 768.916215 943.81336L768.916215 81.269894C768.916215 58.51416 761.330976 40.092707 747.245004 24.922204 734.241006 9.75174 717.98728 2.16647 699.5658 1.083254L699.5658 1.083254Z" /></svg>